<svg xmlns="http://www.w3.org/2000/svg" viewBox="0 0 287 445"><g fill="#b89a5a" opacity=".42"><path d="M 97 381 L 93 385 Z"/><path d="M 86 378 L 72 390 Z"/><path d="M 70 350 L 61 359 Z"/><path d="M 105 343 L 99 343 L 101 343 L 104 346 L 104 349 L 102 351 L 95 351 L 95 346 L 93 349 L 95 351 L 64 379 L 61 380 L 64 380 L 95 352 L 100 352 L 104 350 Z"/><path d="M 88 333 L 73 348 Z"/><path d="M 98 324 L 90 332 Z"/><path d="M 85 324 L 77 332 Z"/><path d="M 31 319 L 40 319 Z"/><path d="M 124 321 L 120 324 L 117 324 L 114 321 L 116 317 L 122 319 L 120 317 L 116 317 L 114 320 L 104 320 L 114 321 L 116 324 L 120 324 Z"/><path d="M 101 310 L 106 308 L 103 308 Z"/><path d="M 63 299 L 42 318 Z"/><path d="M 125 296 L 122 295 L 119 297 L 97 297 L 86 307 L 84 307 L 84 309 L 80 313 L 72 312 L 65 319 L 69 322 L 49 339 L 66 325 L 70 325 L 68 324 L 69 322 L 66 318 L 73 312 L 78 313 L 78 315 L 80 314 L 82 318 L 77 326 L 72 327 L 79 326 L 82 318 L 82 315 L 80 313 L 97 298 L 113 297 L 122 300 L 125 298 Z"/><path d="M 90 285 L 81 293 Z"/><path d="M 50 277 L 47 272 L 49 276 L 47 281 L 37 287 L 31 287 L 27 283 L 30 282 L 26 281 L 32 276 L 33 273 L 41 268 L 48 270 L 45 268 L 40 268 L 34 271 L 32 275 L 25 281 L 3 282 L 2 279 L 2 283 L 24 282 L 31 287 L 37 287 L 48 281 Z"/><path d="M 123 267 L 88 268 L 69 285 L 89 268 L 123 269 Z"/><path d="M 69 228 L 74 230 L 88 243 L 106 243 L 88 243 L 73 228 Z"/><path d="M 38 228 L 66 228 Z"/><path d="M 4 211 L 8 212 Z"/><path d="M 71 209 L 75 210 L 96 229 L 118 229 L 118 227 L 96 228 L 75 209 Z"/><path d="M 37 209 L 66 210 Z"/><path d="M 27 209 L 31 210 Z"/><path d="M 12 209 L 20 210 Z"/><path d="M 5 208 L 6 209 L 6 207 L 9 207 Z"/><path d="M 42 181 L 49 187 L 98 187 L 117 205 L 97 186 L 49 186 L 43 180 Z"/><path d="M 21 163 L 21 165 L 25 167 L 22 166 Z"/><path d="M 5 162 L 14 162 Z"/><path d="M 72 161 L 75 162 L 77 160 L 81 160 L 84 163 L 84 166 L 81 169 L 77 170 L 73 167 L 74 164 L 73 167 L 77 170 L 82 169 L 85 166 L 111 166 L 127 181 L 127 179 L 113 166 L 84 166 L 84 162 L 81 160 L 77 160 L 75 162 Z"/><path d="M 23 160 L 26 160 L 29 163 L 27 165 L 27 167 L 29 168 L 28 166 L 30 163 L 26 160 Z"/><path d="M 65 154 L 69 158 Z"/><path d="M 129 152 L 131 153 L 134 151 L 130 150 Z"/><path d="M 122 150 L 120 148 L 113 149 L 118 149 L 120 151 Z"/><path d="M 49 139 L 49 141 L 52 143 Z"/><path d="M 136 128 L 146 137 L 145 140 L 149 139 Z"/><path d="M 90 127 L 92 131 L 94 131 L 103 140 L 132 140 L 132 138 L 130 137 L 128 139 L 103 139 Z"/><path d="M 58 122 L 88 149 L 107 149 L 88 149 Z"/><path d="M 81 119 L 81 121 L 85 123 Z"/><path d="M 34 118 L 38 121 L 38 126 L 36 128 L 38 130 L 38 120 L 37 118 Z"/><path d="M 34 129 L 27 129 L 25 127 L 26 120 L 32 117 L 27 118 L 25 122 L 2 121 L 2 123 L 21 122 L 25 124 L 25 128 Z"/><path d="M 93 100 L 99 96 L 103 96 L 110 103 L 109 108 L 107 109 L 113 109 L 114 111 L 104 113 L 99 112 L 93 108 Z"/><path d="M 199 92 L 193 97 Z"/><path d="M 46 89 L 79 118 Z"/><path d="M 118 87 L 132 87 Z"/><path d="M 17 85 L 36 86 Z"/><path d="M 2 85 L 14 86 Z"/><path d="M 144 85 L 143 84 L 139 87 Z"/><path d="M 78 83 L 82 86 Z"/><path d="M 211 82 L 203 89 Z"/><path d="M 55 79 L 96 117 L 90 110 L 91 109 L 95 110 L 98 113 L 113 112 L 116 109 L 155 109 L 155 111 L 157 112 L 161 109 L 160 110 L 157 106 L 154 109 L 115 109 L 109 106 L 110 102 L 107 101 L 105 97 L 98 96 L 95 98 L 93 97 L 94 98 L 92 100 L 92 106 L 89 110 Z"/><path d="M 71 76 L 76 81 Z"/><path d="M 48 73 L 52 77 Z"/><path d="M 229 65 L 220 74 Z"/><path d="M 154 65 L 163 65 Z"/><path d="M 132 60 L 136 65 L 132 69 L 136 65 L 151 65 L 136 65 Z"/><path d="M 79 56 L 100 75 Z"/><path d="M 218 51 L 218 53 L 181 87 L 149 86 L 146 89 L 148 89 L 149 87 L 183 86 L 218 54 Z"/><path d="M 111 49 L 124 61 L 125 68 L 124 60 Z"/></g><g fill="#4b82ff" opacity=".78"><path d="M 98 347 L 99 346 L 101 348 L 99 349 Z"/><path d="M 98 344 L 96 345 L 95 349 L 100 351 L 103 349 L 103 346 L 101 344 Z"/><path d="M 68 322 L 69 321 L 70 322 L 69 323 Z"/><path d="M 116 320 L 119 319 L 120 322 L 118 323 Z"/><path d="M 115 321 L 117 323 L 120 323 L 123 320 L 121 320 L 119 318 L 116 318 Z"/><path d="M 72 318 L 74 317 L 75 319 L 73 320 Z"/><path d="M 77 315 L 78 314 L 79 315 L 78 316 Z"/><path d="M 73 313 L 67 319 L 69 321 L 68 322 L 69 324 L 77 325 L 79 323 L 81 316 L 78 314 Z"/><path d="M 33 281 L 35 280 L 36 282 L 34 283 Z"/><path d="M 41 274 L 43 276 L 42 278 L 39 277 Z"/><path d="M 47 271 L 45 271 L 43 269 L 38 270 L 27 281 L 31 282 L 28 283 L 31 286 L 37 286 L 39 284 L 43 283 L 48 278 L 46 272 Z"/><path d="M 17 247 L 16 248 L 17 250 L 16 249 Z"/><path d="M 5 209 L 6 208 L 7 209 L 6 210 Z"/><path d="M 42 178 L 40 180 L 42 180 Z"/><path d="M 38 176 L 40 178 Z"/><path d="M 77 165 L 79 164 L 80 166 L 78 167 Z"/><path d="M 22 163 L 25 162 L 26 164 L 23 165 Z"/><path d="M 81 161 L 77 161 L 74 163 L 75 164 L 74 167 L 77 169 L 81 168 L 83 166 L 82 165 L 83 163 Z"/><path d="M 20 162 L 24 166 L 26 166 L 28 164 L 26 161 Z"/><path d="M 58 148 L 59 150 Z"/><path d="M 30 122 L 31 121 L 34 124 L 31 125 Z"/><path d="M 28 119 L 26 123 L 26 127 L 27 128 L 35 128 L 37 126 L 37 121 L 33 118 Z"/><path d="M 101 102 L 103 104 L 102 106 L 99 105 Z"/><path d="M 128 102 L 130 102 Z"/><path d="M 94 100 L 94 108 L 101 112 L 109 110 L 113 111 L 113 110 L 107 110 L 106 109 L 108 108 L 109 103 L 103 97 L 99 97 Z"/><path d="M 142 86 L 143 85 L 144 86 L 143 87 Z"/><path d="M 143 85 L 144 84 L 145 85 L 144 86 Z"/><path d="M 148 86 L 146 86 L 144 84 L 141 87 L 143 89 L 145 89 Z"/><path d="M 0 66 L 0 339 L 1 339 L 1 331 L 2 330 L 1 328 L 1 211 L 2 210 L 8 211 L 11 210 L 11 209 L 8 208 L 2 209 L 1 208 L 1 163 L 4 162 L 1 161 L 1 87 L 2 86 L 1 85 L 1 66 Z"/><path d="M 127 66 L 128 63 L 131 64 L 129 67 Z"/><path d="M 125 61 L 126 62 L 125 67 L 128 69 L 133 68 L 133 66 L 135 65 L 131 60 Z"/></g></svg>