<svg xmlns="http://www.w3.org/2000/svg" viewBox="0 0 293 445"><g fill="#b89a5a" opacity=".42"><path d="M 214 389 L 218 393 Z"/><path d="M 202 378 L 211 387 Z"/><path d="M 232 374 L 228 379 L 224 380 L 229 380 L 229 383 L 232 385 L 229 382 L 229 378 Z"/><path d="M 183 348 L 183 351 L 192 352 L 221 377 L 192 351 L 193 349 L 190 352 L 185 352 Z"/><path d="M 223 341 L 230 349 Z"/><path d="M 180 341 L 184 345 L 186 343 L 191 343 L 193 345 L 191 343 L 183 344 Z"/><path d="M 202 325 L 210 332 Z"/><path d="M 163 320 L 165 324 L 168 324 L 165 324 L 163 321 L 168 317 L 174 321 L 185 321 L 213 346 L 185 320 L 174 320 L 169 317 Z"/><path d="M 208 311 L 214 311 L 219 315 L 213 310 Z"/><path d="M 235 308 L 241 314 Z"/><path d="M 179 308 L 183 309 Z"/><path d="M 158 297 L 163 298 L 165 296 L 165 299 L 167 297 L 190 298 L 206 312 L 203 315 L 203 317 L 209 325 L 222 325 L 230 332 L 219 322 L 222 319 L 220 317 L 221 319 L 218 325 L 211 325 L 205 318 L 206 311 L 190 297 L 168 297 L 162 295 L 162 297 Z"/><path d="M 199 286 L 207 294 Z"/><path d="M 239 275 L 241 271 L 248 269 L 253 272 L 256 278 L 262 281 L 256 282 L 260 283 L 254 287 L 250 287 L 239 279 Z"/><path d="M 238 277 L 240 281 L 249 287 L 257 286 L 262 282 L 290 282 L 264 282 L 258 279 L 253 271 L 250 269 L 244 269 L 240 271 Z"/><path d="M 165 268 L 199 268 L 212 279 L 199 267 Z"/><path d="M 192 243 L 200 243 L 216 228 L 245 228 L 215 228 L 199 243 Z"/><path d="M 168 228 L 184 228 Z"/><path d="M 270 209 L 276 210 Z"/><path d="M 256 209 L 265 210 Z"/><path d="M 191 228 L 212 210 L 241 209 L 212 209 Z"/><path d="M 210 186 L 189 186 L 168 205 L 189 187 Z"/><path d="M 177 179 L 172 184 Z"/><path d="M 133 178 L 129 182 Z"/><path d="M 253 172 L 237 186 L 212 187 L 237 187 L 246 179 L 247 180 L 246 179 Z"/><path d="M 270 162 L 287 162 Z"/><path d="M 263 163 L 259 162 L 259 166 L 257 168 L 260 166 L 260 162 L 261 164 Z"/><path d="M 213 165 L 212 168 L 209 170 L 204 169 L 204 162 L 202 166 L 174 166 L 159 180 L 161 180 L 175 166 L 202 166 L 205 170 L 208 171 L 212 168 Z"/><path d="M 218 157 L 213 162 L 206 161 L 210 161 L 213 163 Z"/><path d="M 163 152 L 166 149 L 176 149 L 165 149 Z"/><path d="M 238 140 L 226 150 L 225 149 L 226 151 L 221 155 L 227 150 L 228 151 L 227 150 Z"/><path d="M 231 133 L 227 136 Z"/><path d="M 219 130 L 198 149 L 182 149 L 199 149 Z"/><path d="M 150 130 L 137 141 L 138 142 Z"/><path d="M 158 128 L 167 128 Z"/><path d="M 197 127 L 184 139 L 158 139 L 156 137 L 154 140 L 184 140 Z"/><path d="M 239 123 L 237 127 L 240 124 Z"/><path d="M 230 120 L 225 124 Z"/><path d="M 246 132 L 250 129 L 260 129 L 262 127 L 261 124 L 264 122 L 280 122 L 261 122 L 258 118 L 262 123 L 261 128 L 254 130 L 248 124 L 252 118 L 247 124 L 250 128 Z"/><path d="M 240 110 L 236 114 Z"/><path d="M 128 108 L 130 107 L 131 110 L 129 111 Z"/><path d="M 174 98 L 170 101 Z"/><path d="M 194 100 L 192 100 L 192 98 L 184 97 L 176 101 L 184 97 L 188 97 L 191 99 L 190 100 L 191 99 L 193 101 L 192 108 L 186 113 L 182 113 L 178 110 L 179 109 L 176 108 L 177 103 L 176 106 L 172 109 L 133 109 L 129 106 L 125 110 L 130 112 L 133 109 L 167 109 L 170 111 L 178 111 L 186 114 L 190 109 L 193 108 Z"/><path d="M 240 89 L 202 122 L 206 120 Z"/><path d="M 155 87 L 168 87 Z"/><path d="M 257 86 L 282 86 Z"/><path d="M 143 84 L 140 84 L 138 86 L 110 87 L 136 87 L 137 89 L 140 89 L 137 87 Z"/><path d="M 235 76 L 182 124 Z"/><path d="M 216 76 L 205 86 Z"/><path d="M 244 68 L 240 72 Z"/><path d="M 163 67 L 159 70 L 156 70 L 160 70 Z"/><path d="M 135 65 L 145 65 Z"/><path d="M 213 52 L 186 75 Z"/><path d="M 65 52 L 105 86 L 73 58 L 67 51 L 68 52 L 66 54 Z"/><path d="M 175 50 L 164 60 L 155 60 L 152 62 L 151 65 L 149 65 L 151 65 L 154 69 L 151 65 L 155 60 L 160 60 L 163 62 Z"/></g><g fill="#4b82ff" opacity=".78"><path d="M 232 376 L 230 378 L 231 380 L 230 382 L 232 384 Z"/><path d="M 188 346 L 190 348 L 189 350 L 186 348 Z"/><path d="M 186 344 L 184 346 L 184 350 L 185 351 L 190 351 L 193 348 L 193 346 L 191 344 Z"/><path d="M 167 320 L 169 319 L 170 321 L 168 322 Z"/><path d="M 173 321 L 168 318 L 164 321 L 165 323 L 169 323 Z"/><path d="M 212 317 L 213 316 L 216 319 L 213 320 Z"/><path d="M 208 314 L 209 313 L 210 314 L 209 315 Z"/><path d="M 207 312 L 206 318 L 211 324 L 213 325 L 219 323 L 220 324 L 218 322 L 220 318 L 217 314 L 214 312 L 210 313 Z"/><path d="M 165 297 L 163 299 L 162 298 L 164 299 Z"/><path d="M 251 281 L 253 280 L 255 282 L 252 283 Z"/><path d="M 244 276 L 247 275 L 248 277 L 245 278 Z"/><path d="M 241 272 L 240 279 L 250 286 L 254 286 L 259 283 L 256 283 L 255 282 L 256 281 L 261 281 L 256 279 L 251 271 L 245 270 Z"/><path d="M 279 209 L 280 208 L 281 209 L 280 210 Z"/><path d="M 277 209 L 277 210 L 280 211 L 284 210 L 282 208 Z"/><path d="M 206 166 L 208 164 L 210 165 L 209 167 Z"/><path d="M 260 164 L 261 162 L 264 163 L 262 165 Z"/><path d="M 260 165 L 263 165 L 266 162 L 261 162 Z"/><path d="M 204 163 L 205 169 L 211 168 L 212 164 L 210 162 L 205 162 Z"/><path d="M 226 149 L 225 151 Z"/><path d="M 255 121 L 257 123 L 256 125 L 253 124 Z"/><path d="M 250 121 L 249 124 L 252 128 L 254 129 L 260 128 L 261 123 L 259 121 L 259 119 L 254 118 Z"/><path d="M 129 108 L 129 110 L 130 110 L 130 108 Z"/><path d="M 183 104 L 186 103 L 187 105 L 184 106 Z"/><path d="M 189 100 L 190 99 L 191 100 L 190 101 Z"/><path d="M 192 99 L 191 100 L 188 98 L 184 98 L 177 102 L 178 103 L 177 108 L 179 108 L 180 109 L 179 110 L 182 112 L 186 112 L 192 106 L 192 101 L 191 100 Z"/><path d="M 139 86 L 140 85 L 141 86 L 140 87 Z"/><path d="M 140 85 L 141 84 L 143 85 L 142 86 Z"/><path d="M 138 87 L 141 89 L 146 87 L 142 84 Z"/><path d="M 291 66 L 291 339 L 292 339 L 292 66 Z"/><path d="M 156 66 L 157 63 L 160 64 L 158 67 Z"/><path d="M 152 65 L 155 69 L 159 69 L 163 66 L 160 61 L 155 61 Z"/></g></svg>