<svg xmlns="http://www.w3.org/2000/svg" width="800" height="800" viewBox="0 0 800 800" role="img" aria-label="CyberWeel QR logo simplified" shape-rendering="geometricPrecision">
  <rect width="800" height="800" fill="none"/>
  <g transform="translate(76 40) scale(1.0)" fill="#1B2533">
    <path d="M366 73 A316 316 0 0 1 463 103 L419 191 A218 218 0 0 0 352 171 Z"/>
    <path d="M478 111 A316 316 0 0 1 557 175 L484 241 A218 218 0 0 0 430 197 Z"/>
    <path d="M568 187 A316 316 0 0 1 618 275 L526 310 A218 218 0 0 0 492 249 Z"/>
    <path d="M624 291 A316 316 0 0 1 639 392 L541 390 A218 218 0 0 0 531 321 Z"/>
    <path d="M182 103 A316 316 0 0 1 279 73 L292 171 A218 218 0 0 0 225 191 Z"/>
    <path d="M88 175 A316 316 0 0 1 167 111 L215 197 A218 218 0 0 0 161 241 Z"/>
    <path d="M27 275 A316 316 0 0 1 77 187 L153 249 A218 218 0 0 0 118 310 Z"/>
    <path d="M7 392 A316 316 0 0 1 22 291 L116 321 A218 218 0 0 0 106 390 Z"/>
  </g>
  <path d="M357 58 C378 48 418 48 439 58 L422 158 C416 156 409 155 402 155 L402 71 C402 67 395 67 395 71 L395 155 C387 155 380 156 374 158 Z" fill="#C39A45"/>
</svg>