<svg xmlns="http://www.w3.org/2000/svg" viewBox="0 0 927 252"><g fill="currentColor" fill-rule="evenodd"><path d="M781,113 L780,184 L789,190 L856,190 L855,180 L805,180 L801,176 L803,154 L833,154 L836,142 L803,142 L801,125 L804,121 L843,121 L844,137 L858,137 L858,108 L790,108Z"/><path d="M688,113 L687,184 L696,190 L764,190 L764,180 L712,180 L708,176 L709,154 L743,152 L743,142 L709,142 L708,124 L711,121 L751,121 L752,137 L767,137 L768,110 L697,108Z"/><path d="M525,110 L460,108 L441,112 L438,115 L438,190 L461,190 L462,122 L505,122 L507,137 L527,137Z"/><path d="M338,113 L337,183 L346,190 L421,190 L420,180 L362,180 L359,177 L360,155 L394,155 L397,152 L397,143 L360,142 L359,125 L362,122 L405,122 L408,138 L424,138 L425,116 L417,108 L346,108Z"/><path d="M221,95 L195,97 L174,130 L150,95 L126,95 L162,153 L114,231 L134,242Z"/><path d="M869,41 L869,190 L890,191 L891,45Z"/><path d="M231,41 L231,183 L238,190 L319,190 L326,182 L326,154 L304,157 L299,167 L259,167 L253,161 L253,135 L259,130 L298,130 L304,137 L326,135 L326,119 L314,107 L254,107 L253,44Z"/><path d="M51,40 L40,51 L40,180 L50,190 L124,190 L123,167 L70,168 L63,163 L63,65 L123,64 L124,41Z"/><path d="M516,15 L553,190 L577,190 L603,91 L630,190 L653,190 L689,15 L664,19 L640,137 L614,40 L590,40 L566,136 L542,19Z"/></g></svg>