<svg xmlns="http://www.w3.org/2000/svg" width="872" height="247" viewBox="0 0 872 247">
  <g fill="#FFFFFF" fill-rule="evenodd">
    <path d="M 407.875 185.625 L 430.375 186.250 L 431.375 185.500 L 431.375 119.625 L 432.250 118.125 L 434.500 117.375 L 475.500 117.375 L 476.625 132.250 L 497.250 132.375 L 498.000 131.500 L 497.375 111.750 L 495.250 104.500 L 491.250 103.625 L 417.500 103.625 L 408.625 109.625 L 407.750 110.875 Z"/>
    <path d="M 750.875 108.875 L 750.625 179.375 L 760.875 186.125 L 826.000 186.000 L 825.500 174.875 L 775.375 174.875 L 772.250 172.250 L 772.125 150.500 L 802.875 149.750 L 806.000 146.625 L 806.375 137.500 L 772.500 136.625 L 772.125 119.625 L 775.500 116.750 L 813.000 116.875 L 813.875 132.500 L 828.250 133.125 L 829.000 104.125 L 759.625 103.625 Z"/>
    <path d="M 657.500 108.875 L 657.500 179.375 L 667.250 186.125 L 734.875 185.625 L 734.250 174.875 L 682.625 174.875 L 679.000 172.250 L 679.375 149.750 L 710.500 149.500 L 713.750 146.250 L 714.125 137.375 L 679.500 136.750 L 678.750 119.875 L 681.875 116.875 L 721.500 116.875 L 722.625 132.625 L 737.625 132.875 L 737.875 103.875 L 666.375 103.625 Z"/>
    <path d="M 307.875 109.000 L 308.500 180.000 L 317.750 186.250 L 392.000 185.875 L 390.375 175.625 L 333.500 175.625 L 329.250 171.125 L 329.750 151.375 L 364.125 151.000 L 367.125 148.375 L 367.750 138.000 L 329.750 137.500 L 329.500 120.500 L 333.250 117.750 L 375.125 117.625 L 377.375 119.875 L 378.500 133.625 L 394.250 133.875 L 396.125 112.625 L 388.500 103.750 L 316.250 103.500 Z"/>
    <path d="M 191.000 90.375 L 164.750 92.625 L 144.625 125.500 L 121.125 90.750 L 96.125 90.750 L 132.250 147.500 L 84.625 226.875 L 102.625 237.875 L 104.250 237.500 Z"/>
    <path d="M 840.125 36.250 L 839.375 37.500 L 839.375 185.500 L 840.375 186.250 L 861.000 186.250 L 861.750 185.625 L 861.875 40.625 L 860.375 39.250 Z"/>
    <path d="M 201.125 35.875 L 200.875 178.500 L 208.750 185.875 L 289.500 185.375 L 296.750 176.250 L 296.000 148.875 L 274.375 151.875 L 273.500 158.000 L 269.250 162.125 L 230.250 162.125 L 223.500 156.000 L 223.375 131.875 L 229.500 125.875 L 268.625 126.000 L 274.375 132.500 L 295.375 131.125 L 296.375 113.875 L 284.375 102.250 L 224.500 102.250 L 223.750 39.375 Z"/>
    <path d="M 93.625 35.375 L 21.625 35.375 L 9.875 46.250 L 9.750 174.125 L 21.125 186.000 L 94.250 185.500 L 93.500 162.625 L 38.625 162.625 L 33.375 157.375 L 33.250 60.500 L 34.500 59.250 L 93.625 59.375 Z"/>
    <path d="M 659.625 9.875 L 634.250 14.375 L 610.625 132.500 L 585.000 35.625 L 560.000 36.125 L 536.250 131.750 L 512.625 14.500 L 486.000 10.250 L 523.375 185.875 L 547.875 185.250 L 573.250 86.500 L 600.125 185.500 L 623.500 185.500 Z"/>
  </g>
</svg>